<?xml version="1.0" encoding="utf-8"?>
<!-- Generator: Adobe Illustrator 23.0.0, SVG Export Plug-In . SVG Version: 6.00 Build 0)  -->
<svg version="1.1"
	 id="Ebene_1" inkscape:version="1.0.1 (3bc2e813f5, 2020-09-07)" sodipodi:docname="Instagram_(2022).svg" xmlns:inkscape="http://www.inkscape.org/namespaces/inkscape" xmlns:sodipodi="http://sodipodi.sourceforge.net/DTD/sodipodi-0.dtd"
	 xmlns="http://www.w3.org/2000/svg" xmlns:xlink="http://www.w3.org/1999/xlink" x="0px" y="0px" viewBox="0 0 1000 1000"
	 style="enable-background:new 0 0 1000 1000;" xml:space="preserve">
<style type="text/css">
	.st0{fill:#EEEEEE;stroke:#EEEEEE;stroke-miterlimit:10;}
</style>
<sodipodi:namedview  bordercolor="#666666" borderopacity="1" inkscape:current-layer="layer1" inkscape:cx="500" inkscape:cy="500" inkscape:document-rotation="0" inkscape:document-units="mm" inkscape:pageopacity="0" inkscape:pageshadow="2" inkscape:window-height="705" inkscape:window-maximized="1" inkscape:window-width="1366" inkscape:window-x="-8" inkscape:window-y="-8" inkscape:zoom=".515" pagecolor="#ffffff" showgrid="false">
	</sodipodi:namedview>
<g inkscape:groupmode="layer" inkscape:label="Layer 1">
	<path inkscape:connector-curvature="0" class="st0" d="M500.2,128.4c-101,0-113.6,0.4-153.3,2.2c-39.6,1.8-66.6,8.1-90.2,17.3
		c-24.5,9.5-45.2,22.2-65.9,42.8c-20.7,20.7-33.4,41.4-42.9,65.8c-9.2,23.6-15.5,50.6-17.3,90.2c-1.8,39.6-2.2,52.3-2.2,153.2
		c0,100.9,0.4,113.5,2.2,153.2c1.8,39.6,8.1,66.6,17.3,90.2c9.5,24.4,22.2,45.2,42.9,65.8c20.7,20.7,41.4,33.4,65.8,42.9
		c23.7,9.2,50.7,15.4,90.3,17.3c39.7,1.8,52.3,2.2,153.3,2.2c101,0,113.6-0.4,153.3-2.2c39.6-1.8,66.6-8.1,90.3-17.3
		c24.4-9.5,45.2-22.2,65.8-42.9c20.7-20.7,33.4-41.4,42.9-65.8c9.1-23.6,15.4-50.6,17.3-90.2c1.8-39.6,2.2-52.3,2.2-153.2
		c0-100.9-0.5-113.6-2.2-153.2c-1.9-39.6-8.1-66.6-17.3-90.2c-9.5-24.4-22.2-45.2-42.9-65.8c-20.7-20.7-41.4-33.4-65.8-42.8
		c-23.7-9.2-50.7-15.4-90.3-17.3c-39.7-1.8-52.3-2.2-153.3-2.2L500.2,128.4z M466.8,195.4c9.9,0,20.9,0,33.4,0
		c99.3,0,111,0.4,150.2,2.1c36.3,1.7,55.9,7.7,69,12.8c17.4,6.7,29.7,14.8,42.7,27.8c13,13,21.1,25.4,27.8,42.7
		c5.1,13.1,11.2,32.7,12.8,69c1.8,39.2,2.2,50.9,2.2,150.1c0,99.2-0.4,110.9-2.2,150.1c-1.7,36.2-7.7,55.9-12.8,69
		c-6.7,17.3-14.8,29.7-27.8,42.7c-13,13-25.4,21.1-42.7,27.8c-13.1,5.1-32.8,11.1-69,12.8c-39.2,1.8-51,2.2-150.2,2.2
		c-99.3,0-111-0.4-150.2-2.2c-36.3-1.7-55.9-7.7-69-12.8c-17.4-6.7-29.7-14.8-42.8-27.8c-13-13-21.1-25.4-27.8-42.7
		c-5.1-13.1-11.2-32.7-12.8-69c-1.8-39.2-2.1-50.9-2.1-150.1c0-99.2,0.4-110.9,2.1-150.1c1.7-36.2,7.7-55.9,12.8-69
		c6.7-17.3,14.8-29.7,27.8-42.7c13-13,25.4-21.1,42.8-27.8c13.1-5.1,32.8-11.1,69-12.8C384.3,195.8,397.6,195.3,466.8,195.4
		L466.8,195.4z M698.7,257c-24.6,0-44.6,19.9-44.6,44.6c0,24.6,20,44.6,44.6,44.6c24.6,0,44.6-20,44.6-44.6
		C743.3,277,723.3,257,698.7,257L698.7,257z M500.2,309.1c-105.4,0-190.9,85.4-190.9,190.8s85.5,190.8,190.9,190.8
		s190.9-85.4,190.9-190.8S605.6,309.1,500.2,309.1L500.2,309.1z M500.2,376.1c68.4,0,123.9,55.4,123.9,123.8
		c0,68.4-55.5,123.8-123.9,123.8c-68.5,0-123.9-55.5-123.9-123.8C376.3,431.5,431.8,376.1,500.2,376.1L500.2,376.1z"/>
</g>
</svg>
