<?xml version="1.0" encoding="utf-8"?>
<!-- Generator: Adobe Illustrator 23.0.0, SVG Export Plug-In . SVG Version: 6.00 Build 0)  -->
<svg version="1.1" id="Ebene_1" xmlns="http://www.w3.org/2000/svg" xmlns:xlink="http://www.w3.org/1999/xlink" x="0px" y="0px"
	 viewBox="0 0 1000 1000" style="enable-background:new 0 0 1000 1000;" xml:space="preserve">
<style type="text/css">
	.st0{fill:#EEEEEE;}
</style>
<g>
	<path class="st0" d="M498.8,820c-113.9,0-227.9,0.1-341.8-0.1c-65-0.1-113.7-48.8-113.8-114.1c-0.2-137.6-0.3-275.1,0-412.7
		C43.4,228.8,93.1,180,158.1,180c227.9-0.1,455.8-0.1,683.7,0c66.1,0,114.9,49,115,115.6c0.2,136.7,0.2,273.5,0,410.2
		C956.7,771,907.9,819.9,843.1,820C728.4,820.2,613.6,820,498.8,820z M120.5,227.5C252.6,336.3,376,437.9,500.1,540.1
		c124.5-102.6,248.2-204.6,379.3-312.6C623.2,227.5,376.8,227.5,120.5,227.5z M878.9,772.3c-97-91.2-186.3-175.2-275.9-259.5
		c-28.6,23.4-56.6,45.5-83.8,68.7c-13.7,11.7-25,11.3-38.6-0.3c-27.1-23.1-55.1-45.2-83.5-68.4c-90.1,84.9-179.8,169.3-275.7,259.5
		C376.7,772.3,623.4,772.3,878.9,772.3z M91.5,260.7c0,161.8,0,317,0,479.1c94-88.4,182.2-171.5,271.5-255.5
		C272.3,409.6,184.8,337.5,91.5,260.7z M637,484.3c89.7,84.4,177.7,167.1,271.3,255.2c0-161.9,0-317.1,0-478.7
		C814.9,337.8,726.9,410.3,637,484.3z"/>
</g>
</svg>
