<?xml version="1.0" encoding="utf-8"?>
<!-- Generator: Adobe Illustrator 23.0.0, SVG Export Plug-In . SVG Version: 6.00 Build 0)  -->
<svg version="1.1" id="Ebene_1" xmlns="http://www.w3.org/2000/svg" xmlns:xlink="http://www.w3.org/1999/xlink" x="0px" y="0px"
	 viewBox="0 0 1000 1000" style="enable-background:new 0 0 1000 1000;" xml:space="preserve">
<style type="text/css">
	.st0{fill:#EEEEEE;}
</style>
<g>
	<path class="st0" d="M297.4,873.5c-64.6,6.2-110-38.4-152.3-88c-10.7-12.5-18.6-27.6-27.5-41.6c-12.6-19.8-3-37,7.5-53.4
		c30.8-47.8,70.1-87.5,117.9-118.2c33.7-21.7,68.1-4.4,72.9,35.3c2.5,20.8,18.5,11.8,28,10.9c68.2-6.4,126.4-36.8,179.2-78.4
		c57.1-44.9,106-96.8,136.8-163.7c5-10.8,7.8-22.2,9.2-34.1c2.1-18-10.9-23.4-23.9-28.3c-9.4-3.6-19.4-5.4-29.6-4.5
		c-20.4,1.8-31.7-10.9-28.2-31.7c4.5-27.6,22.8-47,40.4-66.4c30-33.1,64.7-60.9,105.6-79.1c33.7-15,61.8-2.6,88.2,21.7
		c43.8,40.1,63.6,88.3,66.4,147.5c3.5,73.6-21.7,137-57.8,198c-63.2,107-147.4,195.1-245.1,271C508.2,830.3,388.2,874.6,297.4,873.5
		z M842.6,313.4c2.7-49.6-19-86.7-49.6-120c-18.8-20.4-42.6-29.3-62.5-14.6c-31.7,23.3-62.8,46.4-83.6,80.7c-4,6.5-1.8,8.2,5.1,8
		c21.3-0.6,39,7.7,51.6,24.7c21.1,28.6,18.1,60.3,8.1,91.6c-15.3,47.7-44.7,87.2-77.2,124.4c-74.7,85.5-162.6,148.7-278.7,165
		c-25,3.5-47.4,5-63.2-18.3c-7.4-10.9-13.6-22.8-20-34.4c-1.9-3.5-3.7-5-7.5-3.4c-41,17.1-75.1,42.4-97.3,81.7
		c-5,8.8-13.1,16.9-7.1,29.1c16,32.6,40.2,58.6,70.6,76.5c29.7,17.5,64.7,16.9,98.2,13c88.8-10.3,167.3-46.2,236.6-101.6
		c94.3-75.4,174.8-163.3,231.7-270.7C820,403,846.6,362,842.6,313.4z"/>
</g>
</svg>
