<?xml version="1.0" encoding="utf-8"?>
<!-- Generator: Adobe Illustrator 23.0.0, SVG Export Plug-In . SVG Version: 6.00 Build 0)  -->
<svg version="1.1" id="Ebene_1" xmlns="http://www.w3.org/2000/svg" xmlns:xlink="http://www.w3.org/1999/xlink" x="0px" y="0px"
	 viewBox="0 0 1000 1000" style="enable-background:new 0 0 1000 1000;" xml:space="preserve">
<style type="text/css">
	.st0{fill:#EEEEEE;stroke:#EEEEEE;stroke-miterlimit:10;}
</style>
<g transform="matrix(5.715038, 0, 0, 5.715038, 409.288757, 277.787231)">
	<g>
		<path class="st0" d="M92.5,0.4c-1.8-6.9-7.3-12.3-14.1-14.1c-12.5-3.3-62.5-3.3-62.5-3.3s-50,0-62.5,3.3
			c-6.9,1.8-12.3,7.3-14.1,14.1c-3.3,12.5-3.3,38.5-3.3,38.5s0,26,3.3,38.5c1.8,6.9,7.3,12.3,14.1,14.1c12.5,3.3,62.5,3.3,62.5,3.3
			s50,0,62.5-3.3c6.9-1.8,12.3-7.3,14.1-14.1c3.3-12.5,3.3-38.5,3.3-38.5S95.8,12.9,92.5,0.4z M82,72.9c-1.6,5.9-6.3,10.6-12.2,12.2
			C59,88,15.9,88,15.9,88s-43.2,0-53.9-2.9c-5.9-1.6-10.6-6.3-12.2-12.2c-2.9-10.8-2.9-33.2-2.9-33.2s0-22.5,2.9-33.2
			C-48.7,0.6-44-4.1-38.1-5.7c10.8-2.9,53.9-2.9,53.9-2.9s43.2,0,53.9,2.9C75.7-4.1,80.4,0.6,82,6.5c2.9,10.8,2.9,33.2,2.9,33.2
			S84.9,62.2,82,72.9z"/>
		<path class="st0" d="M-9.6-1.2v80.1l67.2-40.1L-9.6-1.2z M-0.1,14.9l41.5,24l-41.5,24V14.9z"/>
	</g>
</g>
</svg>
